<?xml version="1.0" encoding="utf-8"?>
<!-- Generator: Adobe Illustrator 28.0.0, SVG Export Plug-In . SVG Version: 6.00 Build 0)  -->
<svg version="1.0" id="katman_1" xmlns="http://www.w3.org/2000/svg" xmlns:xlink="http://www.w3.org/1999/xlink" x="0px" y="0px"
	 viewBox="0 0 361.07 593.88" style="enable-background:new 0 0 361.07 593.88;" xml:space="preserve">
<style type="text/css">
	.st0{fill:#03212E;}
	.st1{fill:#266E86;}
	.st2{fill:#E9EEF0;}
	.st3{fill:#FC331B;}
	.st4{fill:#F97210;}
	.st5{fill:#F2441D;}
	.st6{fill:#0B344A;}
</style>
<path class="st0" d="M150.62,116.51l-10.94,11.17c-0.56,0.58-0.44,0.93,0.36,1.04c8.27,1.19,15.13-0.7,20.59-5.68
	c5.04-4.61,10.29-9.39,15.74-14.34c2.6-3.27,5.3-5.81,8.11-7.62c21.98-14.19,46.11-21.7,72.39-22.53
	c14.29-0.45,28.48,0.48,42.59,2.78c0.49,0.09,0.86,0.22,1.11,0.4c0.28,0.21,0.18,0.65-0.17,0.71c-8.44,1.39-16.64,5.72-23.59,9.75
	c-3.88,2.25-7.95,5.04-12.2,8.37c-0.51-0.31-0.8-0.71-0.89-1.18c-0.05-0.32-0.23-0.43-0.54-0.32c-11.3,3.91-22.25,9.54-33.1,14.71
	c-0.31,0.15-0.29,0.61,0.04,0.73c5.86,2.18,12.36,4.15,17.5,6.48c14.58,6.61,24.74,13.77,36.74,21.69
	c10.03,6.61,22.05,10.88,32.43,16.55c1.17,0.64,1.1,1.04-0.23,1.19c-15.09,1.78-29.98,4.56-44.69,8.35
	c-1.14,0.29-1.24,0.79-0.31,1.5c4.38,3.33,8.35,6.59,11.92,9.79c19.42,17.42,29.84,42.48,31.39,68.21c-0.13,0.24-0.26,0.27-0.41,0.1
	c-7.79-9.33-18.18-17.77-28.21-24.59c-4.05-2.76-9.47-5.73-14.08-8.77c-0.53-0.35-0.71-0.21-0.53,0.4
	c4.38,15.2,5.24,31.83,2.92,47.62c-1.51,9.14-3.73,18.14-6.64,27c-0.56,0.23-0.93,0.66-1.12,1.29c-0.08,0.3-0.25,0.57-0.49,0.78
	c-1.22,1.09-0.99,2.47-1.63,3.62c-0.9,1.64-2.08,3.23-2.96,4.81c-2.2,3.97-4.8,7.49-7.8,10.57c-0.64,0.65-1.76,0.31-1.91-0.59
	c-2.54-14.57-8.26-29.79-18.67-40.31c-2.18-2.21-3.85-4.47-6.44-5.97c-2.1-1.22-4.27-2.21-6.52-2.97c-1.01-0.35-1.81-0.08-2.41,0.81
	c-3.71,5.52-7.33,10.69-11.8,16.02c-2.07,2.47-4.13,4.95-6.16,7.45c-2.74,3.37-6.13,6.89-9.06,10.49c-2.91,3.59-5.15,6.23-6.71,7.92
	c-13.21,14.31-26.37,28.19-39.47,41.62c-6.31,5.57-12.34,10.82-18.1,15.73c-6.31,5.39-13.54,13.47-21.7,24.22
	c-1.01-0.01-1.55-0.34-1.64-0.99c-2.19-16.51-1.57-32.45,4.39-48.06c0.1-0.27-0.12-0.55-0.41-0.51c-0.15,0.02-0.34,0.12-0.56,0.29
	c-10.86,8.64-20,18.72-28.59,29.84C64.4,383.89,53.83,405.2,49.35,427.4c-2.19,10.83-2.78,18.43-2.36,29.45
	c0.85,22.34,6.5,43.46,18.03,62.42c22.31,36.7,59.77,60.27,101.68,68.34c1.55,0.3,4.58,0.81,9.09,1.53
	c2.08,0.33,4.87,0.57,8.38,0.72c2.84,0.12,5.64,0.4,8.39,0.84c-34.58,7.85-71.45,0.96-101.36-18.26c-0.51-0.33-0.61-0.23-0.31,0.3
	c2.74,4.84,6.15,9.14,10.23,12.91c0.13,0.13,0.15,0.25,0.06,0.36h-0.01c-0.09,0.11-0.19,0.13-0.3,0.04
	c-7.48-5.62-15.83-11.3-22.28-17.03c-18.61-16.56-32.9-36.29-42.88-59.18c-0.35-2.5-1.04-4.92-2.08-7.25
	c-1.4-3.14-2.26-5.29-2.58-6.45c-21.58-78,24.08-148.16,81.65-195.12c20.5-16.72,41.28-30.29,61.17-46.52
	c22.15-18.07,53.19-51.82,40.73-83.57c-3.69-9.4-11.71-17.13-20.47-22.25c-4.71-2.75-12.41-5.9-17.71-6.17l-15.47-3.79
	c-0.32-0.07-0.35-0.01-0.09,0.2c14.55,11.83,26.73,31.57,20.91,51.07c-1.15,3.86-3.6,8.13-5.58,11.83c-1.38,2.57-1.74,2.43-1.07-0.4
	c1.03-4.41-0.09-8.97-3.38-13.68c-6.99-10.02-17.4-15.85-28.96-18.94c-0.6-0.16-0.73,0.02-0.4,0.55c1.17,1.84,2.02,3.82,2.57,5.94
	c0.11,0.42-0.01,0.5-0.36,0.25c-6.53-4.63-13.81-7.26-21.84-7.91c-0.58-0.9-0.52-1.52,0.19-1.86c7.72-3.76,15.62-6.34,23.69-7.73
	c0.93-0.17,0.95-0.39,0.04-0.66c-3.49-1.08-6.82-1.45-10.65-1.08c-11.55,1.14-24.23,3.52-33.86,10.55c-0.5,0.36-0.39,1.14,0.19,1.34
	c1.86,0.66,3.68,0.98,5.47,0.95c3.85,0.36,6.62,1.99,9.55,4.08c0.73,0.53,0.65,0.74-0.24,0.64c-1.93-0.21-4-0.04-6.19,0.49
	c-15.73,3.85-30.43,13.04-42.09,24.12c-12.75,12.13-14.6,28.05-13.45,44.91c0.15,2.07-0.16,2.14-0.91,0.21
	c-2.48-6.44-7.87-12.22-12.05-17.77c-2.91-3.87-3.86-7.23-4.05-12.41c-0.18-4.97-0.41-9.93-0.68-14.89
	c-0.01-0.35,0.15-0.52,0.5-0.51c9.84,0.45,18.37-5.69,25.4-11.85c16.27-14.3,32.74-27.63,51.51-38.36c0.49-0.28,0.46-0.36-0.09-0.25
	c-12.05,2.59-21.23,5.69-31,14.1c-5.35,4.61-9.84,8.63-13.45,12.06c-2.43,2.31-3.99,3.42-7.49,4.04
	c-10.87,1.93-22.49,8.46-31.67,14.18c-0.53,0.33-0.82,0.8-0.88,1.42l-0.89,9.48c-0.02,0.25-0.14,0.3-0.35,0.15L4.33,184.84
	c-0.43-0.31-0.28-0.98,0.24-1.07c3.14-0.56,8.11-0.59,8.45-4.78c0.61-7.5,1-14.93,1.19-22.3c0.01-0.35,0.41-0.55,0.75-0.39
	l18.28,8.75c0.21,0.1,0.45,0.11,0.66,0.02c10.43-4.23,12.89-16.25,16.19-25.77c0.11-0.32,0.32-0.55,0.63-0.68
	c6.92-3.04,13.72-6.27,20.4-9.69c1.59-0.81,2.7-1.96,3.64-3.62c6.97-12.39,13.18-25.16,18.62-38.31c0.59-1.41,1.71-2.63,3.07-3.6
	c8.29-5.89,16.47-11.45,24.52-16.69c1.07-0.7,1.3-0.49,0.68,0.63c-3.12,5.63-5.79,11.48-8.01,17.55c-0.07,0.18,0.12,0.35,0.29,0.27
	c2.85-1.28,5.69-2.57,8.51-3.86c16.06-7.34,27.9-22.43,36.68-37.29c0.37-0.62,0.89-1.04,1.57-1.25c6.51-2.09,13.14-3.65,19.88-4.7
	c0.15-0.02,0.25,0.04,0.28,0.19v0.01c0.03,0.15-0.02,0.24-0.17,0.28c-7.32,2.15-10.83,7.23-13.46,13.52
	c-0.25,0.59-0.08,0.76,0.51,0.49c11.55-5.27,24.21-11.15,34.03-17.96c9.07-6.29,17.26-13.65,24.55-22.06
	c0.13-0.15,0.29-0.2,0.48-0.13c0.11,0.04,0.19,0.1,0.24,0.19c0.03,0.05,0.03,0.13,0,0.23c-4.66,14.61-12.41,27.03-26.14,34.01
	c-7.46,3.79-15.19,6.97-22.65,10.77c-7.22,3.69-10.59,8.18-14.44,16.47c-2.34,2.32-4.69,5.11-7.05,8.38
	c-1.83,2.53-3.85,4.48-6.08,5.86c-0.89,0.55-0.82,0.77,0.23,0.65c6.74-0.79,13.57-1.88,20.48-3.26c2.29-0.46,4.38-1.39,5.42-3.33
	c1.57-2.93,5.09-9.96,10.56-21.09c3.84-1.71,7.9-3.4,12.18-5.09c16.96-6.67,33.34-14.78,48.6-23.93
	c14.44-8.65,27.73-20.32,40.24-31.79c0.81-0.75,1.04-0.6,0.68,0.45c-0.33,0.95-0.89,2.08-1.67,3.39
	c-6.53,10.89-12.87,21.52-21.47,30.98c-12.03,13.23-24.71,24.05-38.05,32.46c-11.09,6.99-28.6,16.17-42.15,24.64
	c-6.05,3.78-14.18,8.89-24.37,15.33C157.32,110.26,153.75,113.19,150.62,116.51z M88.25,132.83c7.68-4.98,16.56-8.14,24.66-12.54
	c5.27-2.86,10.46-7.6,15.59-14.21c0.24-0.32,0.17-0.44-0.22-0.37c-1.68,0.3-3.63,1.31-4.89,1.64c-5.61,1.44-11.17,3.03-16.69,4.78
	c-8.34,2.63-14.16,13.19-18.61,20.55C87.92,132.96,87.98,133.01,88.25,132.83z"/>
<path class="st1" d="M187.36,61.28c-5.47,11.13-8.99,18.16-10.56,21.09c-1.04,1.94-3.13,2.87-5.42,3.33
	c-6.91,1.38-13.74,2.47-20.48,3.26c-1.05,0.12-1.12-0.1-0.23-0.65c2.23-1.38,4.25-3.33,6.08-5.86c2.36-3.27,4.71-6.06,7.05-8.38
	L187.36,61.28z"/>
<path class="st2" d="M112.91,120.29c-8.1,4.4-16.98,7.56-24.66,12.54c-0.27,0.18-0.33,0.13-0.16-0.15
	c4.45-7.36,10.27-17.92,18.61-20.55c5.52-1.75,11.08-3.34,16.69-4.78c1.26-0.33,3.21-1.34,4.89-1.64c0.39-0.07,0.46,0.05,0.22,0.37
	C123.37,112.69,118.18,117.43,112.91,120.29z"/>
<path class="st1" d="M176.37,108.7c-5.45,4.95-10.7,9.73-15.74,14.34c-5.46,4.98-12.32,6.87-20.59,5.68
	c-0.8-0.11-0.92-0.46-0.36-1.04l10.94-11.17L176.37,108.7z"/>
<path class="st3" d="M176.42,142.51c5.3,0.27,13,3.42,17.71,6.17c8.76,5.12,16.78,12.85,20.47,22.25
	c12.46,31.75-18.58,65.5-40.73,83.57c-19.89,16.23-40.67,29.8-61.17,46.52C55.13,347.98,9.47,418.14,31.05,496.14
	c0.32,1.16,1.18,3.31,2.58,6.45c1.04,2.33,1.73,4.75,2.08,7.25c-2.44-3.25-4.8-6.46-7.08-9.64c-7.76-10.84-13.95-22.67-18.56-35.48
	l1.57-0.25c0.38-0.07,0.56-0.29,0.54-0.67c-0.94-20.04-0.47-39.87,3.29-59.62c1.43-7.51,4.04-15.41,6.34-23.06
	c1.41-4.67,4.31-11.07,8.72-19.22c16.4-30.29,42.34-57.17,69.22-75.76c16.58-11.47,33.56-22.21,50.47-33.18
	c12.02-7.79,23.98-16.85,34.11-27c11.96-11.99,23.69-31.05,16.49-48.33C198.05,163.67,187.67,150.68,176.42,142.51z"/>
<path class="st1" d="M122.75,167.63l-14.93,1.51c-1.79,0.03-3.61-0.29-5.47-0.95c-0.58-0.2-0.69-0.98-0.19-1.34
	c9.63-7.03,22.31-9.41,33.86-10.55c3.83-0.37,7.16,0,10.65,1.08c0.91,0.27,0.89,0.49-0.04,0.66c-8.07,1.39-15.97,3.97-23.69,7.73
	C122.23,166.11,122.17,166.73,122.75,167.63z"/>
<path class="st4" d="M200.82,177.63c7.2,17.28-4.53,36.34-16.49,48.33c-10.13,10.15-22.09,19.21-34.11,27
	c-16.91,10.97-33.89,21.71-50.47,33.18c-26.88,18.59-52.82,45.47-69.22,75.76c-4.41,8.15-7.31,14.55-8.72,19.22
	c-2.3,7.65-4.91,15.55-6.34,23.06c-3.76,19.75-4.23,39.58-3.29,59.62c0.02,0.38-0.16,0.6-0.54,0.67l-1.57,0.25
	c-11.19-27.38-14-60.73-3.61-89.05c2.12-5.76,5.46-11.74,8.53-17.41c0.48-0.88,1.3-1.63,1.83-2.54c0.14-0.24-0.06-0.53-0.33-0.49
	c-4.91,0.76-9.59,2.2-14.06,4.33c-0.32,0.15-0.67-0.16-0.55-0.5c11.08-30.7,36.81-59.92,66.08-74.45c1.47-0.73,2.71-1.22,3.72-1.48
	c2.47-0.64,2.45-1.13-0.08-1.48c-4.05-0.55-7.97-0.09-11.76,1.39c-0.09,0.04-0.17-0.01-0.24-0.15l0,0
	c-0.05-0.13-0.02-0.22,0.09-0.28c4.59-2.49,9.19-5.55,13.54-7.78c22.62-11.57,45.94-21.72,68.72-32.98
	C167.72,229.11,200.7,210.98,200.82,177.63z"/>
<path class="st5" d="M360.88,221.82c-2.72-38.2-23.66-67.92-57.69-84.98c-4.01-2.01-8.1-3.4-12.25-4.17
	c-0.8-0.15-1.15-1.09-0.65-1.73c8.8-11.12,22.22-15.41,35.91-14.91c0.56,0.02,0.6-0.11,0.11-0.39c-0.83-0.47-1.87-0.88-3.12-1.23
	c-14.62-4.02-28.64-5.45-43.3-6.53c-3.41-0.26-14.06-2.34-15.77-5.56c-0.65-1.21-0.48-1.79,0.49-1.76c-0.51-0.31-0.8-0.71-0.89-1.18
	c-0.05-0.32-0.23-0.43-0.54-0.32c-11.3,3.91-22.25,9.54-33.1,14.71c-0.31,0.15-0.29,0.61,0.04,0.73c5.86,2.18,12.36,4.15,17.5,6.48
	c14.58,6.61,24.74,13.77,36.74,21.69c10.03,6.61,22.05,10.88,32.43,16.55c1.17,0.64,1.1,1.04-0.23,1.19
	c-15.09,1.78-29.98,4.56-44.69,8.35c-1.14,0.29-1.24,0.79-0.31,1.5c4.38,3.33,8.35,6.59,11.92,9.79
	c19.42,17.42,29.84,42.48,31.39,68.21c-0.13,0.24-0.26,0.27-0.41,0.1c-7.79-9.33-18.18-17.77-28.21-24.59
	c-4.05-2.76-9.47-5.73-14.08-8.77c-0.53-0.35-0.71-0.21-0.53,0.4c4.38,15.2,5.24,31.83,2.92,47.62c8.27,2.71,14.51,7.68,18.72,14.92
	c16.37,28.22,2.53,66.19-16.06,89.38c-11.55,14.41-25.62,25.64-42.21,33.71c-0.12,0.06-0.16,0.15-0.11,0.27l0.01,0.01
	c0.05,0.12,0.13,0.16,0.25,0.12c3.08-0.95,6.17-1.9,9.26-2.83c18.95-5.7,35.1-15.54,48.43-29.51c12.59-13.2,22.36-28.31,28.14-45.76
	c3.45-10.42,5.57-17.8,6.36-22.13c4.01-22.25,4.55-45.78-0.86-67.87c-2.68-12.92-7.35-25.23-14-36.92
	c-2.56-4.51-6.04-9.07-9.2-13.48c-0.34-0.47-0.21-1.13,0.29-1.43c11.67-7.04,27.11-3.14,36.49,5.44
	c13.38,12.25,19.2,30.08,20.53,47.73c0.01,0.11,0.02,0.11,0.03,0C361.1,230.42,361.19,226.13,360.88,221.82z"/>
<path class="st6" d="M267.92,290.02c-8.5,27.54-21.28,51.07-42.37,70.9c-2.99,2.81-5.78,5.38-8.35,7.69
	c-1.17,1.05-1.33,0.92-0.46-0.39c12.58-19.14,13.28-43.72,5.39-64.78c-0.07-0.18-0.31-0.21-0.42-0.05
	c-9.72,14.5-19.93,27.95-25.15,45.15c-5.01,16.48-5.8,33.3-2.38,50.47c0.2,0.99,0.03,1.06-0.51,0.2
	c-11.63-18.67-18.03-38.19-14.48-61.08c0.07-0.43-0.04-0.48-0.32-0.15c-21.86,25.82-32.2,60.34-23.46,93.43
	c0.34,1.29,0.16,1.37-0.55,0.25c-11.11-17.49-17.89-33.2-18.17-54.54c0.35-1.49,0.64-3.1,0.86-4.84c0.27-2.15,0.53-3.77,0.76-4.86
	c1.56-7.09,3.71-14.38,6.46-21.86c13.1-13.43,26.26-27.31,39.47-41.62c1.56-1.69,3.8-4.33,6.71-7.92c2.93-3.6,6.32-7.12,9.06-10.49
	c2.03-2.5,4.09-4.98,6.16-7.45c4.47-5.33,8.09-10.5,11.8-16.02c0.6-0.89,1.4-1.16,2.41-0.81c2.25,0.76,4.42,1.75,6.52,2.97
	c2.59,1.5,4.26,3.76,6.44,5.97c10.41,10.52,16.13,25.74,18.67,40.31c0.15,0.9,1.27,1.24,1.91,0.59c3-3.08,5.6-6.6,7.8-10.57
	c0.88-1.58,2.06-3.17,2.96-4.81c0.64-1.15,0.41-2.53,1.63-3.62c0.24-0.21,0.41-0.48,0.49-0.78
	C266.99,290.68,267.36,290.25,267.92,290.02z"/>
<path class="st6" d="M104.97,385.51c-9.03,12.37-15.62,24.56-19.76,36.55c-10.96,31.75-8.52,69.44,9.21,98.59
	c12.59,20.71,42.82,52.41,70.07,41.71c1.83-0.72,4.14-1.07,6.11-2c0.35-0.16,0.33-0.66-0.03-0.8l-3.45-1.35
	c-0.23-0.09-0.34-0.25-0.33-0.48c0.02-0.43,0.16-0.76,0.43-0.97c22.18,5.07,45.95,1.27,63.67-12.79
	c18.33-14.55,28.26-38.04,20.93-61.16c-4.15-13.1-12.91-22.7-26.28-28.81c8.34-0.35,16,1.68,22.98,6.1
	c0.13,0.09,0.25,0.07,0.35-0.06l0.01-0.01c0.1-0.13,0.09-0.25-0.03-0.36c-2.98-2.69-6.06-5.27-9.25-7.74
	c-13.64-10.57-36.76-13.25-52.2-5.34c-1.04,0.53-1.13,0.4-0.28-0.4c2.56-2.43,5.41-4.72,8.54-6.87c6.81-4.67,14.01-6.97,21.6-6.9
	c4.07,0.83,7.88,1.58,11.42,2.26c18.97,3.66,35.62,17.69,42.34,35.9c0.15,0.4,0.06,0.46-0.27,0.19c-2.1-1.77-3.56-4.32-5.79-5.86
	c-1.8-1.25-2.09-0.96-0.86,0.85c1.97,2.89,3.65,6.38,5.04,10.49c18.85,55.37-24.77,103.96-76.58,114.45
	c-2.75-0.44-5.55-0.72-8.39-0.84c-3.51-0.15-6.3-0.39-8.38-0.72c-4.51-0.72-7.54-1.23-9.09-1.53
	c-41.91-8.07-79.37-31.64-101.68-68.34c-11.53-18.96-17.18-40.08-18.03-62.42c-0.42-11.02,0.17-18.62,2.36-29.45
	c4.48-22.2,15.05-43.51,28.81-61.32c8.59-11.12,17.73-21.2,28.59-29.84c0.22-0.17,0.41-0.27,0.56-0.29
	c0.29-0.04,0.51,0.24,0.41,0.51c-5.96,15.61-6.58,31.55-4.39,48.06C103.42,385.17,103.96,385.5,104.97,385.51z"/>
<path class="st1" d="M144.77,345.56c-2.75,7.48-4.9,14.77-6.46,21.86c-0.23,1.09-0.49,2.71-0.76,4.86
	c-0.22,1.74-0.51,3.35-0.86,4.84c-35.51,33.76-54.49,86.32-29.43,132.17c12.56,22.97,34.57,40.63,59.96,47.47
	c-0.27,0.21-0.41,0.54-0.43,0.97c-0.01,0.23,0.1,0.39,0.33,0.48l3.45,1.35c0.36,0.14,0.38,0.64,0.03,0.8
	c-1.97,0.93-4.28,1.28-6.11,2c-27.25,10.7-57.48-21-70.07-41.71c-17.73-29.15-20.17-66.84-9.21-98.59
	c4.14-11.99,10.73-24.18,19.76-36.55c8.16-10.75,15.39-18.83,21.7-24.22C132.43,356.38,138.46,351.13,144.77,345.56z"/>
<path class="st4" d="M217.26,432.42c-7.59-0.07-14.79,2.23-21.6,6.9c-3.13,2.15-5.98,4.44-8.54,6.87c-0.85,0.8-0.76,0.93,0.28,0.4
	c15.44-7.91,38.56-5.23,52.2,5.34c3.19,2.47,6.27,5.05,9.25,7.74c0.12,0.11,0.13,0.23,0.03,0.36l-0.01,0.01
	c-0.1,0.13-0.22,0.15-0.35,0.06c-6.98-4.42-14.64-6.45-22.98-6.1c-1.95-0.34-3.86-0.69-5.73-1.06c-9.91-1.95-19.44-0.31-27.96,5.05
	c-19.3,12.15-22.21,42.29-1.38,54.47c14.59,8.54,31.33,2.82,40.84-10.39c0.63-0.87,0.8-0.79,0.5,0.24
	c-4.43,15.3-18.65,24.7-34.36,23.79c-28.98-1.69-44.28-29.94-36.58-56.5c4.5-15.49,13.82-27.07,27.97-34.76
	c14.27-7.75,29.48-9.74,45.64-5.96c2.43,0.57,2.4,0.83-0.1,0.78C229.27,429.57,223.57,430.49,217.26,432.42z"/>
</svg>
